<svg width="24" height="24" viewBox="0 0 24 24" fill="none" xmlns="http://www.w3.org/2000/svg">
<path fill-rule="evenodd" clip-rule="evenodd" d="M12 17.8C16.034 17.8 19.686 15.55 21.648 12C19.686 8.45 16.034 6.2 12 6.2C7.966 6.2 4.314 8.45 2.352 12C4.314 15.55 7.966 17.8 12 17.8ZM12 5C16.808 5 20.972 7.848 23 12C20.972 16.152 16.808 19 12 19C7.192 19 3.028 16.152 1 12C3.028 7.848 7.192 5 12 5ZM12 14.8C12.7426 14.8 13.4548 14.505 13.9799 13.9799C14.505 13.4548 14.8 12.7426 14.8 12C14.8 11.2574 14.505 10.5452 13.9799 10.0201C13.4548 9.495 12.7426 9.2 12 9.2C11.2574 9.2 10.5452 9.495 10.0201 10.0201C9.495 10.5452 9.2 11.2574 9.2 12C9.2 12.7426 9.495 13.4548 10.0201 13.9799C10.5452 14.505 11.2574 14.8 12 14.8ZM12 16C10.9391 16 9.92172 15.5786 9.17157 14.8284C8.42143 14.0783 8 13.0609 8 12C8 10.9391 8.42143 9.92172 9.17157 9.17157C9.92172 8.42143 10.9391 8 12 8C13.0609 8 14.0783 8.42143 14.8284 9.17157C15.5786 9.92172 16 10.9391 16 12C16 13.0609 15.5786 14.0783 14.8284 14.8284C14.0783 15.5786 13.0609 16 12 16Z" fill="black"/>
</svg>
