<svg width="24" height="24" viewBox="0 0 24 24" fill="none" xmlns="http://www.w3.org/2000/svg">
<g id="weui:eyes-off-outlined" opacity="0.7">
<path id="Vector" fill-rule="evenodd" clip-rule="evenodd" d="M18.67 16.973L21.425 19.728L20.576 20.576L3.85 3.85L4.697 3L7.552 5.855C8.932 5.303 10.432 5 12 5C16.808 5 20.972 7.848 23 12C22.0217 14.0113 20.5276 15.7273 18.67 16.973ZM8.486 6.79L10.15 8.454C10.9049 8.05933 11.7662 7.91598 12.6082 8.04484C13.4503 8.17369 14.2292 8.56802 14.8316 9.17039C15.434 9.77275 15.8283 10.5517 15.9572 11.3938C16.086 12.2358 15.9427 13.0971 15.548 13.852L17.803 16.107C19.377 15.107 20.707 13.704 21.648 12.001C19.686 8.45 16.034 6.2 12 6.2C10.8041 6.20075 9.61659 6.40013 8.486 6.79ZM14.638 12.942C14.8164 12.4427 14.8495 11.903 14.7332 11.3857C14.6169 10.8684 14.3562 10.3947 13.9812 10.0198C13.6063 9.64484 13.1326 9.38408 12.6153 9.26781C12.098 9.15154 11.5583 9.18455 11.059 9.363L14.638 12.942ZM16.448 18.146C15.068 18.698 13.568 19.001 12 19.001C7.192 19.001 3.028 16.153 1 12.001C1.97832 9.98969 3.47241 8.27373 5.33 7.028L6.197 7.895C4.5915 8.9194 3.26931 10.331 2.352 12C4.314 15.55 7.966 17.8 12 17.8C13.1959 17.7992 14.3834 17.5999 15.514 17.21L16.448 18.146ZM8.453 10.15L9.362 11.06C9.18355 11.5593 9.15055 12.099 9.26681 12.6163C9.38308 13.1336 9.64384 13.6073 10.0188 13.9822C10.3937 14.3572 10.8674 14.6179 11.3847 14.7342C11.902 14.8505 12.4417 14.8174 12.941 14.639L13.851 15.547C13.0961 15.9417 12.2348 16.085 11.3928 15.9562C10.5507 15.8273 9.77175 15.433 9.16939 14.8306C8.56702 14.2282 8.17269 13.4493 8.04384 12.6072C7.91498 11.7652 8.05833 10.9049 8.453 10.15Z" fill="black"/>
</g>
</svg>
