<svg width="26" height="24" viewBox="0 0 26 24" fill="none" xmlns="http://www.w3.org/2000/svg">
<g id="devicon:google">
<path id="Vector" d="M8.97206 0.788944C6.44529 1.62082 4.26621 3.19976 2.75489 5.29382C1.24357 7.38789 0.479672 9.88671 0.575397 12.4233C0.671122 14.9598 1.62143 17.4004 3.28672 19.3864C4.95202 21.3725 7.24454 22.7995 9.82754 23.4577C11.9216 23.9705 14.1156 23.993 16.2209 23.5233C18.1281 23.1168 19.8913 22.2471 21.338 20.9996C22.8436 19.6615 23.9365 17.9592 24.4991 16.0758C25.1106 14.0277 25.2195 11.8738 24.8172 9.77957H13.0578V14.4089H19.8681C19.732 15.1473 19.4403 15.852 19.0105 16.4809C18.5807 17.1098 18.0217 17.6499 17.3668 18.0689C16.5352 18.591 15.5978 18.9423 14.6147 19.1002C13.6287 19.2742 12.6173 19.2742 11.6314 19.1002C10.632 18.9041 9.68667 18.5127 8.85549 17.9508C7.52021 17.0538 6.51759 15.7794 5.99072 14.3096C5.45494 12.8122 5.45494 11.1888 5.99072 9.69144C6.36576 8.64185 6.98575 7.6862 7.80442 6.89582C8.74128 5.97472 9.92737 5.31631 11.2326 4.99284C12.5378 4.66936 13.9116 4.69331 15.2034 5.06207C16.2126 5.35605 17.1354 5.8697 17.8983 6.56207C18.6662 5.83707 19.4328 5.11019 20.198 4.38144C20.5932 3.98957 21.0239 3.61644 21.4131 3.21519C20.2485 2.18671 18.8816 1.38643 17.3905 0.860194C14.6753 -0.0754498 11.7044 -0.100594 8.97206 0.788944Z" fill="white"/>
<path id="Vector_2" d="M8.97153 0.789855C11.7037 -0.100288 14.6746 -0.0758051 17.39 0.85923C18.8813 1.38904 20.2476 2.19318 21.4106 3.22548C21.0154 3.62673 20.5985 4.00173 20.1955 4.39173C19.4289 5.11798 18.663 5.84173 17.8978 6.56298C17.1348 5.87061 16.212 5.35696 15.2029 5.06298C13.9115 4.69293 12.5377 4.66759 11.2322 4.98975C9.92662 5.3119 8.7398 5.9691 7.80191 6.88923C6.98324 7.67961 6.36325 8.63526 5.98821 9.68486L1.89258 6.67548C3.35857 3.91653 5.89684 1.80615 8.97153 0.789855Z" fill="#E33629"/>
<path id="Vector_3" d="M0.806505 9.65606C1.02664 8.62067 1.39211 7.61798 1.89314 6.6748L5.98878 9.69168C5.453 11.1891 5.453 12.8124 5.98878 14.3098C4.62422 15.3098 3.25901 16.3148 1.89314 17.3248C0.638868 14.9554 0.256336 12.2557 0.806505 9.65606Z" fill="#F8BD00"/>
<path id="Vector_4" d="M13.0575 9.77832H24.8169C25.2192 11.8726 25.1103 14.0264 24.4988 16.0746C23.9362 17.958 22.8433 19.6602 21.3377 20.9983C20.016 20.0196 18.6883 19.0483 17.3665 18.0696C18.0218 17.6501 18.5811 17.1094 19.0109 16.4798C19.4407 15.8503 19.7322 15.1448 19.8678 14.4058H13.0575C13.0555 12.8646 13.0575 11.3214 13.0575 9.77832Z" fill="#587DBD"/>
<path id="Vector_5" d="M1.89062 17.3246C3.2565 16.3246 4.62171 15.3196 5.98626 14.3096C6.51418 15.7799 7.51823 17.0544 8.85498 17.9508C9.68875 18.5101 10.6361 18.8983 11.6368 19.0908C12.6228 19.2648 13.6341 19.2648 14.6201 19.0908C15.6032 18.9329 16.5406 18.5816 17.3722 18.0596C18.694 19.0383 20.0217 20.0096 21.3434 20.9883C19.897 22.2366 18.1337 23.1068 16.2263 23.5139C14.121 23.9836 11.9271 23.9611 9.83296 23.4483C8.17673 23.0286 6.6297 22.2888 5.28884 21.2752C3.86961 20.2059 2.71045 18.8583 1.89062 17.3246Z" fill="#319F43"/>
</g>
</svg>
