<svg width="24" height="24" viewBox="0 0 24 24" fill="none" xmlns="http://www.w3.org/2000/svg">
<g id="Group">
<path id="Vector" d="M18.2919 2.48902C18.2168 2.35888 18.1133 2.24734 17.9892 2.16268C17.8651 2.07803 17.7234 2.02243 17.5749 2.00002C17.1649 2.00002 16.7219 2.32402 16.2479 2.67302C16.1305 2.75969 16.0115 2.84569 15.8909 2.93102C15.3489 3.30802 14.7269 3.65102 14.1949 3.75902C13.3649 3.92902 12.4119 3.69002 11.6479 3.34902C10.7779 2.94802 10.2749 3.87102 9.88588 4.58502C9.81288 4.71802 9.74388 4.84502 9.67788 4.95402C9.38788 5.42702 9.02288 5.99102 8.60788 6.56002C8.44228 6.54478 8.27549 6.57108 8.12261 6.63654C7.96974 6.702 7.8356 6.80455 7.73234 6.93491C7.62909 7.06527 7.55997 7.21933 7.53125 7.38313C7.50254 7.54693 7.51512 7.71531 7.56788 7.87302C7.25988 8.25102 6.96754 8.61335 6.69088 8.96002C6.49901 8.90586 6.29533 8.91029 6.10599 8.97274C5.91666 9.03519 5.75031 9.15281 5.62831 9.31049C5.50631 9.46818 5.43423 9.65873 5.42133 9.85768C5.40842 10.0566 5.45527 10.2549 5.55588 10.427C4.48388 11.86 3.74588 13.025 3.31988 14.062C2.95988 14.942 2.80588 15.765 2.87288 16.604C2.93988 17.431 3.21488 18.201 3.59988 18.98C4.12188 20.035 5.40188 20.324 6.33888 19.783L21.0609 11.283C21.5202 11.0178 21.8554 10.581 21.9927 10.0686C22.13 9.55627 22.0581 9.01038 21.7929 8.55102L21.2929 7.68502L20.9927 6.78302C20.7631 6.91354 20.3189 6.18946 20.0641 6.12027C19.8092 6.05108 20.1247 6.51171 19.9927 6.28302C19.8606 6.05433 18.0992 7.94032 18.1667 7.68502C18.2342 7.42972 17.2649 8.13357 17.4927 8.00002L20.9927 6.78302L18.2919 2.48902Z" fill="black"/>
</g>
</svg>
