<svg width="25" height="24" viewBox="0 0 25 24" fill="none" xmlns="http://www.w3.org/2000/svg">
<g id="material-symbols:leaderboard-rounded">
<path id="Vector" d="M3.5 21C3.21667 21 2.97933 20.904 2.788 20.712C2.59667 20.52 2.50067 20.2827 2.5 20V10C2.5 9.71667 2.596 9.47933 2.788 9.288C2.98 9.09667 3.21733 9.00067 3.5 9H7C7.28333 9 7.521 9.096 7.713 9.288C7.905 9.48 8.00067 9.71733 8 10V20C8 20.2833 7.904 20.521 7.712 20.713C7.52 20.905 7.28267 21.0007 7 21H3.5ZM10.75 21C10.4667 21 10.2293 20.904 10.038 20.712C9.84667 20.52 9.75067 20.2827 9.75 20V4C9.75 3.71667 9.846 3.47933 10.038 3.288C10.23 3.09667 10.4673 3.00067 10.75 3H14.25C14.5333 3 14.771 3.096 14.963 3.288C15.155 3.48 15.2507 3.71733 15.25 4V20C15.25 20.2833 15.154 20.521 14.962 20.713C14.77 20.905 14.5327 21.0007 14.25 21H10.75ZM18 21C17.7167 21 17.4793 20.904 17.288 20.712C17.0967 20.52 17.0007 20.2827 17 20V12C17 11.7167 17.096 11.4793 17.288 11.288C17.48 11.0967 17.7173 11.0007 18 11H21.5C21.7833 11 22.021 11.096 22.213 11.288C22.405 11.48 22.5007 11.7173 22.5 12V20C22.5 20.2833 22.404 20.521 22.212 20.713C22.02 20.905 21.7827 21.0007 21.5 21H18Z" fill="black"/>
</g>
</svg>
