<svg width="25" height="24" viewBox="0 0 25 24" fill="none" xmlns="http://www.w3.org/2000/svg">
<g id="mdi:user">
<path id="Vector" d="M12.5 4C13.5609 4 14.5783 4.42143 15.3284 5.17157C16.0786 5.92172 16.5 6.93913 16.5 8C16.5 9.06087 16.0786 10.0783 15.3284 10.8284C14.5783 11.5786 13.5609 12 12.5 12C11.4391 12 10.4217 11.5786 9.67157 10.8284C8.92143 10.0783 8.5 9.06087 8.5 8C8.5 6.93913 8.92143 5.92172 9.67157 5.17157C10.4217 4.42143 11.4391 4 12.5 4ZM12.5 14C16.92 14 20.5 15.79 20.5 18V20H4.5V18C4.5 15.79 8.08 14 12.5 14Z" fill="black"/>
</g>
</svg>
